<svg xmlns="http://www.w3.org/2000/svg" xmlns:xlink="http://www.w3.org/1999/xlink" version="1.1" width="6300" height="3900" viewBox="0 0 6300 3900" xml:space="preserve">
<desc>Created with Fabric.js 5.2.1</desc>
<defs>
</defs>
<g transform="matrix(1 0 0 1 3154.86 1950)" id="Layer_1_0"  >
<rect style="stroke: none; stroke-width: 1; stroke-dasharray: none; stroke-linecap: butt; stroke-dashoffset: 0; stroke-linejoin: miter; stroke-miterlimit: 4; fill: rgb(255,255,255); fill-rule: nonzero; opacity: 1;"  x="-1069.345" y="-1962.5" rx="0" ry="0" width="2138.69" height="3925" />
</g>
<g transform="matrix(1 0 0 1 1047.62 1950)" id="Layer_1_1"  >
<rect style="stroke: none; stroke-width: 1; stroke-dasharray: none; stroke-linecap: butt; stroke-dashoffset: 0; stroke-linejoin: miter; stroke-miterlimit: 4; fill: rgb(0,0,0); fill-rule: nonzero; opacity: 1;"  x="-1037.895" y="-1962.5" rx="0" ry="0" width="2075.79" height="3925" />
</g>
<g transform="matrix(1 0 0 1 5262.1 1950)" id="Layer_1_2"  >
<rect style="stroke: none; stroke-width: 1; stroke-dasharray: none; stroke-linecap: butt; stroke-dashoffset: 0; stroke-linejoin: miter; stroke-miterlimit: 4; fill: rgb(200,16,46); fill-rule: nonzero; opacity: 1;"  x="-1037.895" y="-1962.5" rx="0" ry="0" width="2075.79" height="3925" />
</g>
<g transform="matrix(1.32 0 0 1.32 3154.42 1950)" id="Layer_1_0"  >
<polygon style="stroke: none; stroke-width: 1; stroke-dasharray: none; stroke-linecap: butt; stroke-dashoffset: 0; stroke-linejoin: miter; stroke-miterlimit: 4; fill: rgb(254,186,29); fill-rule: nonzero; opacity: 1;"  points="0,-476.48 118.27,-112.48 501,-112.48 191.37,112.48 309.63,476.48 0,251.52 -309.63,476.48 -191.37,112.48 -501,-112.48 -118.27,-112.48 0,-476.48 " />
</g>
</svg>